# xmcd
#
# Track frame offsets:
#	150
#	12860
#	29897
#	43160
#	55585
#	67900
#	81670
#	95315
#	109917
#	123300
#
# Disc length: 1788 seconds
#
# Revision: 3
# Processed by: cddbd v1.5.1PL0 Copyright (c) Steve Scherf et al.
# Submitted via: audiograbber 1.83.01
#
DISCID=8406fa0a
DTITLE=B.B. King - The Best Of B.B. King
DYEAR=1994
DGENRE=Blues
TTITLE0=Everyday ( I Have The Blues)
TTITLE1=Three O'Clock Blues
TTITLE2=When My Heart Beats Like A Hammer
TTITLE3=Why I Sing The Blues
TTITLE4=A Whole Lot Of Lovin'
TTITLE5=You Upset Me Baby
TTITLE6=Sweet Little Angel
TTITLE7=Ain't That Just Like A Woman
TTITLE8=Crying Won't Help You
TTITLE9=You Don't Know
EXTD=
EXTT0=
EXTT1=
EXTT2=
EXTT3=
EXTT4=
EXTT5=
EXTT6=
EXTT7=
EXTT8=
EXTT9=
PLAYORDER=
